<svg width="1200" height="630" viewBox="0 0 1200 630" fill="none" xmlns="http://www.w3.org/2000/svg">
    <rect width="1200" height="630" fill="#030712"/>
    <rect x="72" y="64" width="1056" height="502" rx="24" fill="#111827" stroke="#2f3747" stroke-width="2"/>
    <rect x="112" y="104" width="72" height="72" rx="18" fill="#7c3aed"/>
    <text x="148" y="151" text-anchor="middle" fill="white" font-family="Inter, Arial, sans-serif" font-size="34" font-weight="800">B</text>
    <text x="208" y="145" fill="#f9fafb" font-family="Inter, Arial, sans-serif" font-size="40" font-weight="800">Billable</text>
    <text x="112" y="255" fill="#f9fafb" font-family="Inter, Arial, sans-serif" font-size="56" font-weight="800">Online invoicing for</text>
    <text x="112" y="322" fill="#a78bfa" font-family="Inter, Arial, sans-serif" font-size="56" font-weight="800">small teams</text>
    <text x="112" y="383" fill="#cbd5e1" font-family="Inter, Arial, sans-serif" font-size="26" font-weight="500">Manage clients, send invoices, and collect Stripe payments</text>
    <text x="112" y="421" fill="#cbd5e1" font-family="Inter, Arial, sans-serif" font-size="26" font-weight="500">from a dedicated workspace.</text>

    <rect x="690" y="144" width="360" height="330" rx="18" fill="#030712" stroke="#334155" stroke-width="2"/>
    <rect x="722" y="180" width="112" height="82" rx="14" fill="#064e3b"/>
    <rect x="850" y="180" width="168" height="82" rx="14" fill="#1f2937"/>
    <text x="746" y="212" fill="#a7f3d0" font-family="Inter, Arial, sans-serif" font-size="16" font-weight="700">Paid</text>
    <text x="746" y="244" fill="#f9fafb" font-family="Inter, Arial, sans-serif" font-size="30" font-weight="800">$18.2k</text>
    <text x="878" y="212" fill="#fbbf24" font-family="Inter, Arial, sans-serif" font-size="16" font-weight="700">Outstanding</text>
    <text x="878" y="244" fill="#f9fafb" font-family="Inter, Arial, sans-serif" font-size="30" font-weight="800">$4.8k</text>

    <rect x="722" y="296" width="296" height="46" rx="10" fill="#111827"/>
    <rect x="722" y="356" width="296" height="46" rx="10" fill="#111827"/>
    <rect x="722" y="416" width="296" height="46" rx="10" fill="#111827"/>
    <circle cx="746" cy="319" r="8" fill="#34d399"/>
    <circle cx="746" cy="379" r="8" fill="#60a5fa"/>
    <circle cx="746" cy="439" r="8" fill="#f59e0b"/>
    <rect x="770" y="310" width="128" height="10" rx="5" fill="#e5e7eb"/>
    <rect x="770" y="370" width="154" height="10" rx="5" fill="#e5e7eb"/>
    <rect x="770" y="430" width="116" height="10" rx="5" fill="#e5e7eb"/>
    <rect x="930" y="310" width="58" height="10" rx="5" fill="#64748b"/>
    <rect x="930" y="370" width="58" height="10" rx="5" fill="#64748b"/>
    <rect x="930" y="430" width="58" height="10" rx="5" fill="#64748b"/>
</svg>
